<svg width="262" height="279" viewBox="0 0 262 279" fill="none" xmlns="http://www.w3.org/2000/svg">
<path fill-rule="evenodd" clip-rule="evenodd" d="M76.9923 0.837C90.9616 0.152182 95.4156 0 131 0C166.584 0 171.038 0.164863 184.996 0.837C198.953 1.50914 208.481 3.88064 216.817 7.31741C225.546 10.8303 233.466 16.3215 240.016 23.4233C246.685 30.3856 251.83 38.8064 255.117 48.1148C258.356 56.9921 260.571 67.1376 261.214 81.9753C261.857 96.8764 262 101.619 262 139.5C262 177.393 261.845 182.136 261.214 197.012C260.583 211.85 258.356 221.995 255.117 230.872C251.83 240.182 246.676 248.617 240.016 255.589C233.466 262.691 225.546 268.17 216.817 271.67C208.481 275.119 198.953 277.478 185.02 278.163C171.038 278.848 166.584 279 131 279C95.4156 279 90.9616 278.835 76.9923 278.163C63.0586 277.491 53.5314 275.119 45.195 271.67C36.4528 268.169 28.532 262.682 21.9842 255.589C15.3196 248.623 10.1622 240.192 6.87155 230.885C3.64418 222.008 1.42909 211.862 0.786 197.025C0.142909 182.124 0 177.381 0 139.5C0 101.607 0.154818 96.8637 0.786 82.0006C1.41718 67.1375 3.64418 56.9921 6.87155 48.1148C10.1671 38.8074 15.3284 30.3769 21.9961 23.4106C28.5347 16.3152 36.4474 10.8232 45.1831 7.31741C53.5195 3.88064 63.0467 1.52182 76.9804 0.837H76.9923ZM183.936 25.947C170.121 25.2749 165.977 25.1354 131 25.1354C96.023 25.1354 91.8786 25.2749 78.0641 25.947C65.2856 26.5684 58.3545 28.8385 53.7338 30.7534C47.6245 33.2898 43.2538 36.2954 38.6688 41.1779C34.3225 45.6806 30.9777 51.162 28.8795 57.2204C27.0813 62.1409 24.9495 69.5217 24.366 83.1293C23.7348 97.8402 23.6038 102.254 23.6038 139.5C23.6038 176.746 23.7348 181.16 24.366 195.871C24.9495 209.478 27.0813 216.859 28.8795 221.78C30.9755 227.829 34.322 233.32 38.6688 237.822C42.8965 242.451 48.0532 246.015 53.7338 248.247C58.3545 250.162 65.2856 252.432 78.0641 253.053C91.8786 253.725 96.0111 253.865 131 253.865C165.989 253.865 170.121 253.725 183.936 253.053C196.714 252.432 203.645 250.162 208.266 248.247C214.376 245.71 218.746 242.705 223.331 237.822C227.678 233.32 231.024 227.829 233.12 221.78C234.919 216.859 237.05 209.478 237.634 195.871C238.265 181.16 238.396 176.746 238.396 139.5C238.396 102.254 238.265 97.8402 237.634 83.1293C237.05 69.5217 234.919 62.1409 233.12 57.2204C230.739 50.7146 227.916 46.0604 223.331 41.1779C219.103 36.5499 213.955 32.9881 208.266 30.7534C203.645 28.8385 196.714 26.5684 183.936 25.947ZM114.268 182.504C123.612 186.646 134.018 187.205 143.706 184.086C153.395 180.966 161.766 174.361 167.39 165.399C173.013 156.437 175.541 145.674 174.54 134.949C173.54 124.223 169.073 114.199 161.904 106.591C157.334 101.727 151.808 98.0027 145.724 95.6862C139.639 93.3697 133.149 92.5184 126.719 93.1938C120.289 93.8692 114.079 96.0543 108.537 99.592C102.995 103.13 98.2589 107.932 94.669 113.653C91.0791 119.373 88.725 125.871 87.7761 132.677C86.8273 139.483 87.3074 146.428 89.1817 153.013C91.0561 159.597 94.2781 165.658 98.6159 170.757C102.954 175.857 108.299 179.869 114.268 182.504ZM83.3875 88.7981C89.64 82.1398 97.0629 76.8582 105.232 73.2548C113.402 69.6513 122.158 67.7967 131 67.7967C139.842 67.7967 148.598 69.6513 156.768 73.2548C164.937 76.8582 172.36 82.1398 178.613 88.7981C184.865 95.4564 189.825 103.361 193.209 112.06C196.593 120.76 198.334 130.084 198.334 139.5C198.334 148.916 196.593 158.24 193.209 166.94C189.825 175.639 184.865 183.544 178.613 190.202C165.985 203.649 148.858 211.203 131 211.203C113.142 211.203 96.0151 203.649 83.3875 190.202C70.7598 176.755 63.6657 158.517 63.6657 139.5C63.6657 120.483 70.7598 102.245 83.3875 88.7981ZM213.268 78.4751C214.817 76.9186 216.058 75.047 216.916 72.9708C217.774 70.8947 218.232 68.6564 218.263 66.3884C218.294 64.1204 217.897 61.8689 217.097 59.767C216.296 57.6651 215.107 55.7557 213.601 54.1519C212.095 52.548 210.302 51.2822 208.328 50.4295C206.354 49.5768 204.24 49.1544 202.11 49.1875C199.98 49.2205 197.878 49.7083 195.929 50.622C193.979 51.5356 192.221 52.8565 190.76 54.5065C187.917 57.7153 186.361 61.9776 186.421 66.3884C186.482 70.7993 188.154 75.0114 191.083 78.1307C194.012 81.25 197.968 83.0308 202.11 83.0951C206.252 83.1594 210.255 81.5021 213.268 78.4751Z" fill="#FADFD6"/>
</svg>
