<svg width="262" height="279" viewBox="0 0 262 279" fill="none" xmlns="http://www.w3.org/2000/svg">
<path d="M240.942 0H21.0583C9.432 0 0 10.044 0 22.4246V256.575C0 268.956 9.432 279 21.0583 279H240.942C252.568 279 262 268.956 262 256.575V22.4246C262 10.044 252.568 0 240.942 0ZM240.942 256.68C94.2873 256.645 20.96 256.61 20.96 256.575C20.9927 100.405 21.0255 22.32 21.0583 22.32C167.713 22.3549 241.04 22.3898 241.04 22.4246C241.007 178.595 240.974 256.68 240.942 256.68ZM38.8415 104.59H77.7157V237.743H38.8415V104.59ZM58.295 86.3854C70.7072 86.3854 80.827 75.6439 80.827 62.3914C80.827 59.2404 80.2442 56.1204 79.1119 53.2093C77.9795 50.2982 76.3198 47.6531 74.2275 45.4251C72.1352 43.197 69.6513 41.4296 66.9176 40.2238C64.1839 39.018 61.2539 38.3974 58.295 38.3974C55.3361 38.3974 52.4061 39.018 49.6724 40.2238C46.9387 41.4296 44.4548 43.197 42.3625 45.4251C40.2702 47.6531 38.6105 50.2982 37.4781 53.2093C36.3458 56.1204 35.763 59.2404 35.763 62.3914C35.7302 75.6439 45.8172 86.3854 58.295 86.3854ZM140.923 171.864C140.923 154.496 144.035 137.686 164.241 137.686C184.153 137.686 184.448 157.53 184.448 172.98V237.743H223.289V164.715C223.289 128.863 216.019 101.277 176.686 101.277C157.789 101.277 145.115 112.332 139.908 122.795H139.384V104.59H102.082V237.743H140.923V171.864Z" fill="#FADFD6"/>
</svg>
