<svg width="262" height="279" viewBox="0 0 262 279" fill="none" xmlns="http://www.w3.org/2000/svg">
<path d="M0.00120319 100.08C0.00120319 88.018 2.57427 76.6223 7.64472 65.9864C12.4892 55.6559 19.6866 46.1745 28.8536 38.0476C38.0019 30.0274 48.4708 23.0922 59.9575 17.4424C71.7428 11.5996 84.5018 7.19168 97.8345 4.35677C111.328 1.45315 125.223 -0.0111844 139.174 6.43164e-05C160.723 6.43164e-05 180.778 3.7366 199.376 11.1787C217.731 18.485 233.355 29.6977 244.613 43.6447C256.23 57.8311 262 73.8781 262 91.77C262 102.499 260.714 112.995 258.084 123.259C255.501 133.517 251.397 143.478 245.862 152.919C240.586 162.058 233.687 170.507 225.391 177.989C217.052 185.353 206.954 191.232 195.725 195.261C183.533 199.64 170.344 201.844 157.034 201.727C147.782 201.727 138.55 199.944 129.43 196.362C120.311 192.796 113.765 187.897 109.83 181.617C108.448 185.974 106.556 192.269 104.04 200.502C101.618 208.719 99.9914 214.021 99.2724 216.425C98.5156 218.812 97.1156 222.797 95.0723 228.316C93.6865 232.399 91.9089 236.386 89.7559 240.239L83.2475 250.689C80.4329 255.173 77.2864 259.512 73.8255 263.682C70.4011 267.744 66.1631 272.597 61.1116 278.178L58.2925 279L56.4195 277.326C54.3951 259.759 53.3545 249.247 53.3545 245.774C53.3545 235.495 54.8492 223.96 57.8006 211.153C60.6953 198.362 65.2739 182.284 71.4228 162.95C77.5716 143.632 81.0907 132.267 82.0367 128.903C77.7041 121.662 75.5094 112.205 75.5094 100.576C75.5094 91.2894 79.0473 82.5915 86.1422 74.4052C93.256 66.2499 102.243 62.1723 113.14 62.1723C121.484 62.1723 127.955 64.436 132.59 68.9787C137.244 73.506 139.514 79.2116 139.514 86.173C139.514 93.553 136.525 104.235 130.509 118.205C124.492 132.19 121.503 142.624 121.503 149.555C121.503 156.578 124.568 162.454 130.698 167.059C136.747 171.666 144.747 174.163 153.004 174.02C160.496 174.02 167.44 172.625 173.891 169.819C180.242 167.095 185.739 163.205 189.954 158.454C199.134 148.133 205.679 136.4 209.195 123.957C211.012 117.414 212.412 111.197 213.282 105.352C214.209 99.4757 214.606 93.9251 214.606 88.6537C214.606 69.3198 207.114 54.2496 192.224 43.4586C177.259 32.6676 157.772 27.3031 133.801 27.3031C106.538 27.3031 83.7394 34.5281 65.482 49.0247C47.2056 63.4747 38.0107 81.8473 38.0107 104.127C38.0107 109.042 38.9188 113.786 40.6405 118.375C42.3244 122.949 44.1596 126.593 46.1461 129.29C48.1138 131.942 49.9679 134.531 51.6518 136.919C53.3545 139.306 54.2437 141.012 54.2437 142.035C54.2437 145.167 53.241 149.244 51.2166 154.283C49.1165 159.322 46.6381 161.834 43.6488 161.834C43.365 161.834 42.1919 161.663 40.1486 161.307C33.072 159.576 26.6812 156.339 21.6263 151.927C16.2614 147.354 12.0275 141.973 9.15829 136.081C6.29723 130.211 4.06882 124.146 2.49859 117.957C0.802101 112.1 -0.0362789 106.099 0.00120319 100.08Z" fill="#FADFD6"/>
</svg>
